<svg width="40" height="46" viewBox="0 0 40 46" fill="none" xmlns="http://www.w3.org/2000/svg">
<g clip-path="url(#clip0_95_26)">
<path d="M20.0275 11.7393L29.337 17.353L20.0275 22.6741L10.2972 17.353L20.0275 11.7393Z" fill="url(#paint0_linear_95_26)"/>
<path d="M10.2972 17.5542L20.0275 22.8571L19.9726 33.6822L10.2972 28.5622V17.5542Z" fill="url(#paint1_linear_95_26)"/>
<path d="M20.0275 22.8571L29.4468 17.5542L29.7211 28.5622L20.1555 33.8833L20.0275 22.8571Z" fill="url(#paint2_linear_95_26)"/>
<path d="M39.3781 11.0629L39.2318 10.9714L29.9405 5.65029L20.2103 0.0731429L20.0823 0L19.9725 0.0548571C19.7898 0.120116 19.6124 0.199597 19.4421 0.292571L10.9556 5.248L0.457194 11.392C0.0182367 11.5931 0.0365266 12.0503 0.0365266 12.3246V12.5257L0.0182367 28.1051L-5.32147e-05 33.8834C-0.0183431 34.2309 0.127976 34.5417 0.384035 34.6514L12.4554 41.5086L19.5884 45.568C19.7347 45.6594 19.8994 45.7143 20.0457 45.7143C20.1708 45.7199 20.2939 45.681 20.3932 45.6046L30.7087 39.6617L39.4878 34.6149C39.817 34.4686 40.0182 34.1394 39.9634 33.8286L39.9999 11.9406C40.0548 11.4286 39.6341 11.1909 39.3781 11.0629ZM20.0091 12.4526L28.5139 17.3897L20.0274 22.272L17.1376 20.6446L11.4311 17.408L20.0091 12.4526ZM29.6662 16.7131L20.448 11.3554C20.3267 11.2662 20.1809 11.2165 20.0303 11.2132C19.8797 11.21 19.7318 11.2532 19.6067 11.3371L10.2789 16.7497L1.79236 11.9406L7.71828 8.48457L20.0274 1.29829L31.3488 7.78972L38.2624 11.7577L29.6662 16.7131ZM1.20708 12.9463L9.65701 17.7371L9.82162 28.2697C9.80333 28.5989 9.96794 28.8914 10.224 29.0194L15.839 32.2377L19.4421 34.304V44.16L1.1705 33.7737L1.20708 12.9463ZM10.8276 18.3954L19.4604 23.2777L19.4421 32.9691L10.9922 28.1234L10.8276 18.3954ZM20.6127 34.3223L24.2158 32.2377L29.7759 29.056L29.8308 29.0194C29.9405 28.9646 30.0685 28.8731 30.16 28.7451L30.2149 28.672V28.5806L30.1966 21.5954V17.7554L38.8294 12.7634V21.2663L38.8111 33.664L27.2336 40.32L20.5944 44.1417L20.6127 34.3223ZM20.6127 32.9874V23.2777L29.1175 18.3771V28.1051L20.6127 32.9874Z" fill="#FEFBFB"/>
<path d="M19.7713 2.43185C19.5153 2.46842 19.2958 2.63299 19.186 2.85242C19.0763 3.10842 19.0946 3.3827 19.2226 3.56556C19.3689 3.78499 19.6067 3.91299 19.8811 3.91299C19.9301 3.90959 19.979 3.90349 20.0274 3.8947C20.3383 3.85813 20.5761 3.6387 20.6309 3.36442C20.669 3.24454 20.6737 3.1166 20.6447 2.99423C20.6158 2.87186 20.5541 2.75965 20.4663 2.66956C20.3806 2.57366 20.2716 2.50143 20.1499 2.4598C20.0282 2.41816 19.8978 2.40854 19.7713 2.43185ZM20.2651 5.63185C19.9908 5.48556 19.6799 5.50385 19.4604 5.65013C19.2592 5.75985 19.1312 5.97927 19.0946 6.21699C19.0763 6.47299 19.186 6.69242 19.3324 6.82042C19.4029 6.88756 19.4862 6.93994 19.5773 6.97448C19.6683 7.00902 19.7654 7.02503 19.8628 7.02156C19.9763 7.01964 20.0883 6.99476 20.192 6.94842C20.4846 6.8387 20.6492 6.56442 20.6492 6.29013C20.6675 6.03413 20.5029 5.77813 20.2651 5.63185ZM20.2834 8.77699C20.0274 8.61242 19.7164 8.61242 19.4787 8.74042C19.2592 8.85013 19.1129 9.06956 19.0946 9.32556C19.0763 9.58156 19.186 9.85585 19.3872 9.98385C19.5245 10.0853 19.6922 10.1369 19.8628 10.1301C19.9763 10.1282 20.0883 10.1033 20.192 10.057C20.3163 10.0073 20.4242 9.92358 20.5032 9.81546C20.5822 9.70734 20.6291 9.57917 20.6387 9.44562C20.6482 9.31207 20.6199 9.17853 20.5571 9.06028C20.4943 8.94204 20.3995 8.84386 20.2834 8.77699ZM7.86459 29.2753C7.59024 29.3484 7.38905 29.5678 7.33418 29.8421C7.27931 30.1347 7.37076 30.409 7.57195 30.5736C7.69873 30.6831 7.86166 30.7418 8.0292 30.7381C8.08459 30.7384 8.13983 30.7323 8.19381 30.7198C8.43158 30.665 8.63276 30.5004 8.70592 30.2993C8.83395 30.0433 8.79737 29.7324 8.57789 29.4947C8.49361 29.3922 8.38106 29.3168 8.25423 29.2778C8.12741 29.2388 7.99191 29.2379 7.86459 29.2753ZM31.4951 30.7564C31.5576 30.7532 31.6192 30.7409 31.678 30.7198C31.9158 30.665 32.117 30.5004 32.1719 30.3176C32.2999 30.0433 32.245 29.7141 32.0438 29.4764C31.9516 29.3741 31.8317 29.3006 31.6987 29.2649C31.5656 29.2292 31.425 29.2328 31.2939 29.2753C31.0379 29.3484 30.8367 29.5678 30.7818 29.8421C30.727 30.1347 30.8367 30.409 31.0379 30.5736C31.1476 30.7016 31.3122 30.7564 31.4951 30.7564ZM5.19426 30.8478C4.91992 30.9393 4.73702 31.1953 4.71873 31.4878C4.68215 31.7987 4.82847 32.0913 5.06623 32.2193C5.17553 32.2893 5.30224 32.3273 5.43203 32.329C5.53966 32.3267 5.64559 32.3017 5.74296 32.2558C5.98073 32.1461 6.14534 31.9267 6.16363 31.7256C6.2185 31.4513 6.10876 31.1587 5.88928 30.9758C5.79758 30.8907 5.6835 30.8334 5.5604 30.8107C5.43731 30.7881 5.3103 30.8009 5.19426 30.8478ZM34.0923 32.3107C34.1792 32.3142 34.2659 32.3018 34.3484 32.2741C34.6044 32.1827 34.7873 31.9633 34.8056 31.7438C34.8788 31.4696 34.8056 31.1953 34.5861 30.9941C34.4907 30.9027 34.3712 30.8404 34.2416 30.8145C34.112 30.7886 33.9778 30.8002 33.8545 30.8478C33.7311 30.8989 33.6227 30.9805 33.5395 31.085C33.4564 31.1895 33.4012 31.3135 33.3792 31.4452C33.3573 31.577 33.3692 31.7121 33.414 31.8379C33.4588 31.9638 33.5348 32.0761 33.6351 32.1644C33.7667 32.2632 33.9278 32.3148 34.0923 32.3107ZM3.18238 32.4753C2.9629 32.3473 2.68855 32.3473 2.48736 32.4753C2.24959 32.6033 2.10327 32.841 2.10327 33.1336C2.10327 33.4261 2.24959 33.6821 2.48736 33.7918C2.58679 33.8516 2.70058 33.8832 2.81658 33.8833C2.95838 33.8855 3.0979 33.8474 3.21896 33.7736C3.45672 33.609 3.58475 33.3347 3.56646 33.097C3.56646 32.841 3.42014 32.6033 3.18238 32.457V32.4753ZM36.2688 33.7187C36.39 33.8255 36.5462 33.8841 36.7078 33.8833C36.8019 33.8833 36.8952 33.8646 36.9821 33.8284C37.2382 33.7187 37.4211 33.4627 37.4394 33.2433C37.4942 32.9507 37.3662 32.6581 37.1101 32.4936C36.8724 32.329 36.5797 32.329 36.3602 32.4753C36.253 32.541 36.1636 32.6321 36.0998 32.7405C36.036 32.8489 35.9998 32.9713 35.9944 33.097C35.9762 33.353 36.0859 33.5907 36.2688 33.7187Z" fill="#FEFBFB"/>
</g>
<defs>
<linearGradient id="paint0_linear_95_26" x1="28.181" y1="12.1298" x2="20.0282" y2="26.9577" gradientUnits="userSpaceOnUse">
<stop offset="0.0001" stop-color="#00A3FF"/>
<stop offset="1" stop-color="#0054C6"/>
</linearGradient>
<linearGradient id="paint1_linear_95_26" x1="19.4367" y1="18.1302" x2="6.59003" y2="26.2259" gradientUnits="userSpaceOnUse">
<stop offset="0.0001" stop-color="#00A3FF"/>
<stop offset="1" stop-color="#0054C6"/>
</linearGradient>
<linearGradient id="paint2_linear_95_26" x1="29.1326" y1="18.1374" x2="16.2174" y2="26.1458" gradientUnits="userSpaceOnUse">
<stop offset="0.0001" stop-color="#00A3FF"/>
<stop offset="1" stop-color="#0054C6"/>
</linearGradient>
<clipPath id="clip0_95_26">
<rect width="40" height="45.7143" fill="white"/>
</clipPath>
</defs>
</svg>
